# xmcd CD database file
#
# Track frame offsets:
#	150
#	14710
#	29989
#	43808
#	61866
#	78252
#	97295
#	112235
#	129205
#	144245
#	159687
#	182278
#	200286
#	214407
#
# Disc length: 3078 seconds
#
# Revision: 0
# Processed by: cddbd v1.5.2PL0 Copyright (c) Steve Scherf et al.
# Submitted via: CDex 1.51
#
DISCID=cd0c040e
DTITLE=Igor Gerzina - Sax Album
DYEAR=2006
DGENRE=Jazz
TTITLE0=Funky Business
TTITLE1=First Date
TTITLE2=Desperate Housewife
TTITLE3=2U
TTITLE4=Easy Living
TTITLE5=You ve Got A Friend
TTITLE6=Make My Day
TTITLE7=Over My Head
TTITLE8=Up And Down
TTITLE9=Next Morning
TTITLE10=Sheeps and Wolfs
TTITLE11=One Step
TTITLE12=Against All Odds
TTITLE13=Coming Home
EXTD=YEAR: 2006
EXTT0=
EXTT1=
EXTT2=
EXTT3=
EXTT4=
EXTT5=
EXTT6=
EXTT7=
EXTT8=
EXTT9=
EXTT10=
EXTT11=
EXTT12=
EXTT13=
PLAYORDER=
